<?xml version="1.0" encoding="UTF-8"?>
<!DOCTYPE svg PUBLIC "-//W3C//DTD SVG 1.1//EN" "http://www.w3.org/Graphics/SVG/1.1/DTD/svg11.dtd">
<!-- Creator: CorelDRAW 2020 (64 Bit Versão de avaliação) -->
<svg height="2.7092mm"
	 style="shape-rendering:geometricPrecision; text-rendering:geometricPrecision; image-rendering:optimizeQuality; fill-rule:evenodd; clip-rule:evenodd"
	 version="1.1" viewBox="0 0 507.98 270.92" width="5.0798mm"
	 xml:space="preserve"
	 xmlns="http://www.w3.org/2000/svg"
>
 <defs>
  <style type="text/css">
   .str0 {
	   stroke: #373435;
	   stroke-width: 8.54;
	   stroke-linecap: round;
	   stroke-linejoin: round;
	   stroke-miterlimit: 22.9256
   }

   .fil1 {
	   fill: none;
	   fill-rule: nonzero
   }

   .fil0 {
	   fill: #DC6538
   }

   .fil2 {
	   fill: #FEFEFE;
	   fill-rule: nonzero
   }

   .fil4 {
	   fill: #F58634;
	   fill-rule: nonzero
   }

   .fil3 {
	   fill: #DC6538;
	   fill-rule: nonzero
   }
  </style>
	 <mask id="id0">
  <linearGradient gradientUnits="userSpaceOnUse" id="id1" x1="43.92" x2="65.51" y1="159.68" y2="-86.11">
   <stop offset="0" style="stop-opacity:1; stop-color:white"/>
	  <stop offset="1" style="stop-opacity:0; stop-color:white"/>
  </linearGradient>
		 <rect height="180.09" style="fill:url(#id1)" width="182.52" x="-3.08" y="92.81"/>
     </mask>
	 <mask id="id2">
  <linearGradient gradientUnits="userSpaceOnUse" id="id3" x1="43.92" x2="65.51" y1="159.68" y2="-86.11">
   <stop offset="0" style="stop-opacity:1; stop-color:white"/>
	  <stop offset="1" style="stop-opacity:0; stop-color:white"/>
  </linearGradient>
		 <rect height="216.97" style="fill:url(#id3)" width="219.97" x="-7.69" y="-7.84"/>
     </mask>
	 <mask id="id4">
  <linearGradient gradientUnits="userSpaceOnUse" id="id5" x1="281.85" x2="281.85" y1="167.18" y2="180.28">
   <stop offset="0" style="stop-opacity:1; stop-color:white"/>
	  <stop offset="1" style="stop-opacity:0; stop-color:white"/>
  </linearGradient>
		 <rect height="70.34" style="fill:url(#id5)" width="350.17" x="163.22" y="131.86"/>
     </mask>
 </defs>
	<g id="Camada_x0020_1">
  <metadata id="CorelCorpID_0Corel-Layer"/>
		<g id="_1321870996512">
   <g>
    <polygon class="fil0" points="67.05,102.81 169.44,167.57 109.31,262.9 6.92,198.14 " style="mask:url(#id0)"/>
	   <polygon class="fil0" points="76.3,2.16 202.28,81.84 128.29,199.13 2.31,119.46 " style="mask:url(#id2)"/>
	   <g>
     <path class="fil1 str0"
		   d="M172.3 182.1c-0.26,4.73 -2.46,8.53 -6.65,11.39 -3.8,2.53 -8.21,3.79 -13.24,3.79l-36.6 0c-5,0 -8.83,-1.33 -11.43,-3.99 -1.68,-1.72 -3.86,-5.45 -6.45,-11.19l-18.7 -41.57c2.34,-0.42 7.76,-2.24 16.26,-5.39 8.21,-3.05 13.37,-5.13 15.48,-6.26 12.59,-6.53 18.89,-14.7 18.89,-24.5 0,-11.26 -7.99,-16.91 -23.95,-16.91l-96.97 0 14.83 -23.95 95.74 0c34.43,0 51.62,10.94 51.62,32.84 0,18.53 -17.84,34.72 -53.54,48.58l16.91 37.16 37.8 0zm-84.08 -82.36l-30.6 97.54 -33.88 0 30.38 -97.54 34.1 0z"/>
		   <path class="fil2"
				 d="M172.3 182.1c-0.26,4.73 -2.46,8.53 -6.65,11.39 -3.8,2.53 -8.21,3.79 -13.24,3.79l-36.6 0c-5,0 -8.83,-1.33 -11.43,-3.99 -1.68,-1.72 -3.86,-5.45 -6.45,-11.19l-18.7 -41.57c2.34,-0.42 7.76,-2.24 16.26,-5.39 8.21,-3.05 13.37,-5.13 15.48,-6.26 12.59,-6.53 18.89,-14.7 18.89,-24.5 0,-11.26 -7.99,-16.91 -23.95,-16.91l-96.97 0 14.83 -23.95 95.74 0c34.43,0 51.62,10.94 51.62,32.84 0,18.53 -17.84,34.72 -53.54,48.58l16.91 37.16 37.8 0zm-84.08 -82.36l-30.6 97.54 -33.88 0 30.38 -97.54 34.1 0z"
				 id="1"/>
    </g>
	   <path class="fil3"
			 d="M232.27 183.96c-0.64,2.34 -2.11,4.18 -4.38,5.53 -2.05,1.18 -4.39,1.77 -7.01,1.77l-25.45 0c-14.8,0 -22.21,-4.46 -22.21,-13.38 0,-5.72 2.53,-10.23 7.58,-13.47 4.36,-2.81 9.53,-4.21 15.54,-4.21l6.62 0c3.86,0 7.26,0.59 10.19,1.78 3.9,1.59 5.92,3.99 6.11,7.22 0.16,3.26 -1.4,5.95 -4.68,8.12l-15.06 0 4.86 -9.82 -9.63 0 -3.72 11.02c-0.2,0.64 -0.31,1.22 -0.31,1.73 0,2.48 1.98,3.71 5.94,3.71l35.61 0zm40.31 0c-1.43,4.87 -5.24,7.3 -11.41,7.3l-23.29 0c-4.5,0 -6.75,-1.59 -6.75,-4.75 0,-0.8 0.17,-1.64 0.5,-2.56l5.13 -16.45 -6.85 0 2.65 -7.3c4.9,-1.37 8.53,-3.12 10.92,-5.26 2.68,-2.41 5.55,-6.77 8.61,-13.08l8.93 0 -5.66 18.34 11.04 0c-1.74,4.86 -5.3,7.3 -10.66,7.3l-2.79 0 -5.03 16.46 24.66 0zm53.52 0c0,2.13 -1.17,3.93 -3.52,5.38 -2.08,1.28 -4.24,1.92 -6.51,1.92l-17.51 0c-4.65,0 -6.95,-1.92 -6.95,-5.75 0,-0.98 0.2,-2.03 0.59,-3.15l4.63 -14.86 -9.32 0 -6.79 13.13c-0.7,2.23 -2.23,3.33 -4.6,3.33l-4.02 0 5.95 -16.46c-1.84,-0.42 -3.35,-1.38 -4.49,-2.86 -1.15,-1.46 -1.73,-3.16 -1.73,-5.08 0,-3.49 1.62,-6.21 4.85,-8.13 2.68,-1.57 5.9,-2.37 9.61,-2.37l7.34 0 -3.79 11.14 24.43 0 -7.41 23.76 19.24 0zm59.03 0c-1.47,4.87 -5.19,7.3 -11.2,7.3l-17.32 0c-4.95,0 -7.41,-1.57 -7.41,-4.74 -3.32,3.79 -7.39,5.68 -12.23,5.68 -3.57,0 -6.45,-1.09 -8.67,-3.29 -2.23,-2.2 -3.34,-5.07 -3.34,-8.59 0,-6.38 2.39,-11.4 7.15,-15.1 4.3,-3.35 9.65,-5.02 16.01,-5.02l25.48 0 -7.5 23.76 19.03 0zm-30.11 -16.46l-9.47 0 -3.18 10.65c-0.19,0.67 -0.28,1.28 -0.28,1.82 0,2.65 2.6,3.98 7.79,3.98l5.14 -16.45zm70.61 16.46c-1.44,4.87 -5.24,7.3 -11.42,7.3l-23.28 0c-4.51,0 -6.75,-1.59 -6.75,-4.75 0,-0.8 0.17,-1.64 0.5,-2.56l5.13 -16.45 -6.85 0 2.65 -7.3c4.9,-1.37 8.53,-3.12 10.92,-5.26 2.68,-2.41 5.55,-6.77 8.61,-13.08l8.93 0 -5.66 18.34 11.04 0c-1.74,4.86 -5.3,7.3 -10.66,7.3l-2.79 0 -5.03 16.46 24.66 0zm77.76 -23.76c-1.22,4.86 -4.87,7.3 -10.97,7.3l-28.58 0c1,0.67 1.82,1.9 2.46,3.68 0.64,1.77 0.91,3.33 0.78,4.64 -0.42,5.09 -2.67,9.08 -6.71,11.98 -3.86,2.78 -8.88,4.18 -15.06,4.21 -7.19,0.06 -12.71,-1.35 -16.58,-4.26 -3.44,-2.55 -5.16,-5.92 -5.16,-10.09 0,-0.82 0.08,-1.65 0.23,-2.48 0.78,-4.6 3.08,-8.2 6.85,-10.82 4.01,-2.77 9.37,-4.16 16.06,-4.16l56.68 0zm-49.78 7.3l-10.48 0 -4.09 11.72c-0.2,0.61 -0.31,1.19 -0.31,1.74 0,2.63 2.43,3.94 7.3,3.94 0.57,0 1.07,-0.02 1.49,-0.05l6.09 -17.35z"/>
	   <path class="fil4"
			 d="M232.27 183.96c-0.64,2.34 -2.11,4.18 -4.38,5.53 -2.05,1.18 -4.39,1.77 -7.01,1.77l-25.45 0c-14.8,0 -22.21,-4.46 -22.21,-13.38 0,-5.72 2.53,-10.23 7.58,-13.47 4.36,-2.81 9.53,-4.21 15.54,-4.21l6.62 0c3.86,0 7.26,0.59 10.19,1.78 3.9,1.59 5.92,3.99 6.11,7.22 0.16,3.26 -1.4,5.95 -4.68,8.12l-15.06 0 4.86 -9.82 -9.63 0 -3.72 11.02c-0.2,0.64 -0.31,1.22 -0.31,1.73 0,2.48 1.98,3.71 5.94,3.71l35.61 0zm40.31 0c-1.43,4.87 -5.24,7.3 -11.41,7.3l-23.29 0c-4.5,0 -6.75,-1.59 -6.75,-4.75 0,-0.8 0.17,-1.64 0.5,-2.56l5.13 -16.45 -6.85 0 2.65 -7.3c4.9,-1.37 8.53,-3.12 10.92,-5.26 2.68,-2.41 5.55,-6.77 8.61,-13.08l8.93 0 -5.66 18.34 11.04 0c-1.74,4.86 -5.3,7.3 -10.66,7.3l-2.79 0 -5.03 16.46 24.66 0zm53.52 0c0,2.13 -1.17,3.93 -3.52,5.38 -2.08,1.28 -4.24,1.92 -6.51,1.92l-17.51 0c-4.65,0 -6.95,-1.92 -6.95,-5.75 0,-0.98 0.2,-2.03 0.59,-3.15l4.63 -14.86 -9.32 0 -6.79 13.13c-0.7,2.23 -2.23,3.33 -4.6,3.33l-4.02 0 5.95 -16.46c-1.84,-0.42 -3.35,-1.38 -4.49,-2.86 -1.15,-1.46 -1.73,-3.16 -1.73,-5.08 0,-3.49 1.62,-6.21 4.85,-8.13 2.68,-1.57 5.9,-2.37 9.61,-2.37l7.34 0 -3.79 11.14 24.43 0 -7.41 23.76 19.24 0zm59.03 0c-1.47,4.87 -5.19,7.3 -11.2,7.3l-17.32 0c-4.95,0 -7.41,-1.57 -7.41,-4.74 -3.32,3.79 -7.39,5.68 -12.23,5.68 -3.57,0 -6.45,-1.09 -8.67,-3.29 -2.23,-2.2 -3.34,-5.07 -3.34,-8.59 0,-6.38 2.39,-11.4 7.15,-15.1 4.3,-3.35 9.65,-5.02 16.01,-5.02l25.48 0 -7.5 23.76 19.03 0zm-30.11 -16.46l-9.47 0 -3.18 10.65c-0.19,0.67 -0.28,1.28 -0.28,1.82 0,2.65 2.6,3.98 7.79,3.98l5.14 -16.45zm70.61 16.46c-1.44,4.87 -5.24,7.3 -11.42,7.3l-23.28 0c-4.51,0 -6.75,-1.59 -6.75,-4.75 0,-0.8 0.17,-1.64 0.5,-2.56l5.13 -16.45 -6.85 0 2.65 -7.3c4.9,-1.37 8.53,-3.12 10.92,-5.26 2.68,-2.41 5.55,-6.77 8.61,-13.08l8.93 0 -5.66 18.34 11.04 0c-1.74,4.86 -5.3,7.3 -10.66,7.3l-2.79 0 -5.03 16.46 24.66 0zm77.76 -23.76c-1.22,4.86 -4.87,7.3 -10.97,7.3l-28.58 0c1,0.67 1.82,1.9 2.46,3.68 0.64,1.77 0.91,3.33 0.78,4.64 -0.42,5.09 -2.67,9.08 -6.71,11.98 -3.86,2.78 -8.88,4.18 -15.06,4.21 -7.19,0.06 -12.71,-1.35 -16.58,-4.26 -3.44,-2.55 -5.16,-5.92 -5.16,-10.09 0,-0.82 0.08,-1.65 0.23,-2.48 0.78,-4.6 3.08,-8.2 6.85,-10.82 4.01,-2.77 9.37,-4.16 16.06,-4.16l56.68 0zm-49.78 7.3l-10.48 0 -4.09 11.72c-0.2,0.61 -0.31,1.19 -0.31,1.74 0,2.63 2.43,3.94 7.3,3.94 0.57,0 1.07,-0.02 1.49,-0.05l6.09 -17.35z"
			 style="mask:url(#id4)"/>
   </g>
  </g>
 </g>
</svg>
