<?xml version="1.0" encoding="UTF-8"?>
<!DOCTYPE svg PUBLIC "-//W3C//DTD SVG 1.1//EN" "http://www.w3.org/Graphics/SVG/1.1/DTD/svg11.dtd">
<!-- Creator: CorelDRAW 2020 (64 Bit Versão de avaliação) -->
<svg height="2.7092mm"
	 style="shape-rendering:geometricPrecision; text-rendering:geometricPrecision; image-rendering:optimizeQuality; fill-rule:evenodd; clip-rule:evenodd"
	 version="1.1" viewBox="0 0 211.66 270.92" width="2.1166mm"
	 xml:space="preserve"
	 xmlns="http://www.w3.org/2000/svg"
>
 <defs>
  <style type="text/css">
   .str0 {
	   stroke: #373435;
	   stroke-width: 8.54;
	   stroke-linecap: round;
	   stroke-linejoin: round;
	   stroke-miterlimit: 22.9256
   }

   .fil1 {
	   fill: none;
	   fill-rule: nonzero
   }

   .fil0 {
	   fill: #DC6538
   }

   .fil2 {
	   fill: #FEFEFE;
	   fill-rule: nonzero
   }
  </style>
	 <mask id="id0">
  <linearGradient gradientUnits="userSpaceOnUse" id="id1" x1="47.24" x2="68.83" y1="163.65" y2="-82.14">
   <stop offset="0" style="stop-opacity:1; stop-color:white"/>
	  <stop offset="1" style="stop-opacity:0; stop-color:white"/>
  </linearGradient>
		 <rect height="180.09" style="fill:url(#id1)" width="182.52" x="0.24" y="96.78"/>
     </mask>
	 <mask id="id2">
  <linearGradient gradientUnits="userSpaceOnUse" id="id3" x1="47.24" x2="68.83" y1="163.65" y2="-82.14">
   <stop offset="0" style="stop-opacity:1; stop-color:white"/>
	  <stop offset="1" style="stop-opacity:0; stop-color:white"/>
  </linearGradient>
		 <rect height="216.97" style="fill:url(#id3)" width="219.97" x="-4.37" y="-3.87"/>
     </mask>
 </defs>
	<g id="Camada_x0020_1">
  <metadata id="CorelCorpID_0Corel-Layer"/>
		<g id="_1321866648576">
   <g>
    <polygon class="fil0" points="70.37,106.78 172.76,171.54 112.63,266.87 10.24,202.11 " style="mask:url(#id0)"/>
	   <polygon class="fil0" points="79.62,6.13 205.6,85.81 131.61,203.1 5.63,123.43 " style="mask:url(#id2)"/>
	   <g>
     <path class="fil1 str0"
		   d="M175.62 186.07c-0.26,4.73 -2.46,8.53 -6.65,11.39 -3.8,2.53 -8.21,3.79 -13.24,3.79l-36.6 0c-5,0 -8.83,-1.33 -11.43,-3.99 -1.68,-1.72 -3.86,-5.45 -6.45,-11.19l-18.7 -41.57c2.34,-0.42 7.76,-2.24 16.26,-5.39 8.21,-3.05 13.37,-5.13 15.48,-6.26 12.59,-6.53 18.89,-14.7 18.89,-24.5 0,-11.26 -7.99,-16.91 -23.95,-16.91l-96.97 0 14.83 -23.95 95.74 0c34.43,0 51.62,10.94 51.62,32.84 0,18.53 -17.84,34.72 -53.54,48.58l16.91 37.16 37.8 0zm-84.08 -82.36l-30.6 97.54 -33.88 0 30.38 -97.54 34.1 0z"/>
		   <path class="fil2"
				 d="M175.62 186.07c-0.26,4.73 -2.46,8.53 -6.65,11.39 -3.8,2.53 -8.21,3.79 -13.24,3.79l-36.6 0c-5,0 -8.83,-1.33 -11.43,-3.99 -1.68,-1.72 -3.86,-5.45 -6.45,-11.19l-18.7 -41.57c2.34,-0.42 7.76,-2.24 16.26,-5.39 8.21,-3.05 13.37,-5.13 15.48,-6.26 12.59,-6.53 18.89,-14.7 18.89,-24.5 0,-11.26 -7.99,-16.91 -23.95,-16.91l-96.97 0 14.83 -23.95 95.74 0c34.43,0 51.62,10.94 51.62,32.84 0,18.53 -17.84,34.72 -53.54,48.58l16.91 37.16 37.8 0zm-84.08 -82.36l-30.6 97.54 -33.88 0 30.38 -97.54 34.1 0z"
				 id="1"/>
    </g>
   </g>
  </g>
 </g>
</svg>
